<mxfile host="65bd71144e">
    <diagram id="yYyVacJPetJnpFOgcMOj" name="Page-1">
        <mxGraphModel dx="630" dy="369" grid="1" gridSize="10" guides="1" tooltips="1" connect="1" arrows="1" fold="1" page="1" pageScale="1" pageWidth="850" pageHeight="1100" math="0" shadow="0">
            <root>
                <mxCell id="0"/>
                <mxCell id="1" parent="0"/>
                <mxCell id="5" style="edgeStyle=none;html=1;" edge="1" parent="1" source="2" target="3">
                    <mxGeometry relative="1" as="geometry"/>
                </mxCell>
                <mxCell id="6" style="edgeStyle=none;html=1;" edge="1" parent="1" source="2" target="4">
                    <mxGeometry relative="1" as="geometry"/>
                </mxCell>
                <mxCell id="2" value="Trip" style="whiteSpace=wrap;html=1;" vertex="1" parent="1">
                    <mxGeometry x="340" y="260" width="120" height="60" as="geometry"/>
                </mxCell>
                <mxCell id="9" style="edgeStyle=none;html=1;entryX=1;entryY=0.5;entryDx=0;entryDy=0;" edge="1" parent="1" source="3" target="2">
                    <mxGeometry relative="1" as="geometry"/>
                </mxCell>
                <mxCell id="3" value="National_Park" style="whiteSpace=wrap;html=1;" vertex="1" parent="1">
                    <mxGeometry x="570" y="150" width="120" height="60" as="geometry"/>
                </mxCell>
                <mxCell id="4" value="Visitor" style="whiteSpace=wrap;html=1;" vertex="1" parent="1">
                    <mxGeometry x="120" y="160" width="120" height="60" as="geometry"/>
                </mxCell>
                <mxCell id="7" value="trip belongs to visitor (attribute)&lt;br&gt;" style="text;html=1;align=center;verticalAlign=middle;resizable=0;points=[];autosize=1;strokeColor=none;fillColor=none;rotation=30;" vertex="1" parent="1">
                    <mxGeometry x="210" y="210" width="190" height="30" as="geometry"/>
                </mxCell>
                <mxCell id="8" value="trip belongs to national_park (attribute)" style="text;html=1;align=center;verticalAlign=middle;resizable=0;points=[];autosize=1;strokeColor=none;fillColor=none;rotation=-30;" vertex="1" parent="1">
                    <mxGeometry x="380" y="210" width="230" height="30" as="geometry"/>
                </mxCell>
                <mxCell id="10" value="national_park has many trips (method)" style="text;html=1;align=center;verticalAlign=middle;resizable=0;points=[];autosize=1;strokeColor=none;fillColor=none;rotation=-30;" vertex="1" parent="1">
                    <mxGeometry x="435" y="255" width="230" height="30" as="geometry"/>
                </mxCell>
                <mxCell id="11" value="visitor has many trips (method)" style="text;html=1;align=center;verticalAlign=middle;resizable=0;points=[];autosize=1;strokeColor=none;fillColor=none;rotation=26;" vertex="1" parent="1">
                    <mxGeometry x="170" y="255" width="190" height="30" as="geometry"/>
                </mxCell>
                <mxCell id="12" value="2" style="whiteSpace=wrap;html=1;" vertex="1" parent="1">
                    <mxGeometry x="120" y="610" width="60" height="80" as="geometry"/>
                </mxCell>
                <mxCell id="13" value="1" style="whiteSpace=wrap;html=1;" vertex="1" parent="1">
                    <mxGeometry x="210" y="610" width="60" height="80" as="geometry"/>
                </mxCell>
                <mxCell id="14" value="4" style="whiteSpace=wrap;html=1;" vertex="1" parent="1">
                    <mxGeometry x="300" y="610" width="60" height="80" as="geometry"/>
                </mxCell>
                <mxCell id="15" value="4" style="whiteSpace=wrap;html=1;" vertex="1" parent="1">
                    <mxGeometry x="390" y="610" width="60" height="80" as="geometry"/>
                </mxCell>
                <mxCell id="16" value="2" style="whiteSpace=wrap;html=1;" vertex="1" parent="1">
                    <mxGeometry x="480" y="610" width="60" height="80" as="geometry"/>
                </mxCell>
                <mxCell id="17" value="4" style="whiteSpace=wrap;html=1;" vertex="1" parent="1">
                    <mxGeometry x="570" y="610" width="60" height="80" as="geometry"/>
                </mxCell>
                <mxCell id="18" value="" style="shape=singleArrow;whiteSpace=wrap;html=1;arrowWidth=0.4;arrowSize=0.4;rotation=90;" vertex="1" parent="1">
                    <mxGeometry x="290" y="530" width="80" height="60" as="geometry"/>
                </mxCell>
                <mxCell id="19" value="most_freq = visitor4&lt;br&gt;most_freq_count = 3&lt;br&gt;&lt;br&gt;i = visitor4&lt;br&gt;cur_freq= 3" style="text;html=1;align=center;verticalAlign=middle;resizable=0;points=[];autosize=1;strokeColor=none;fillColor=none;" vertex="1" parent="1">
                    <mxGeometry x="255" y="415" width="130" height="90" as="geometry"/>
                </mxCell>
            </root>
        </mxGraphModel>
    </diagram>
</mxfile>